<?xml version="1.0" standalone="no"?>
<!DOCTYPE svg PUBLIC "-//W3C//DTD SVG 20010904//EN"
 "http://www.w3.org/TR/2001/REC-SVG-20010904/DTD/svg10.dtd">
<svg version="1.0" xmlns="http://www.w3.org/2000/svg"
 width="2048.000000pt" height="2048.000000pt" viewBox="0 0 2048.000000 2048.000000"
 preserveAspectRatio="xMidYMid meet">
<metadata>
Created by potrace 1.14, written by Peter Selinger 2001-2017
</metadata>
<g transform="translate(0.000000,2048.000000) scale(0.100000,-0.100000)"
fill="#000000" stroke="none">
<path d="M4245 19329 c-678 -56 -1332 -311 -1845 -720 -730 -582 -1172 -1429
-1250 -2393 -14 -179 -14 -11773 0 -11952 94 -1164 718 -2148 1715 -2702 360
-200 782 -335 1250 -399 123 -17 431 -18 6125 -18 5689 0 6002 1 6124 18 577
79 1044 249 1482 539 867 573 1405 1508 1484 2578 8 101 10 1921 8 6060 -3
5609 -5 5921 -21 6035 -28 183 -74 406 -114 545 -303 1061 -1098 1892 -2142
2240 -224 74 -396 113 -696 158 -101 15 -612 16 -6065 18 -3275 1 -6000 -2
-6055 -7z m7483 -2626 c5 -16 1079 -2930 2386 -6477 1307 -3546 2376 -6454
2376 -6462 0 -12 -251 -14 -1702 -12 l-1703 3 -398 1193 -399 1192 -2106 -2
-2105 -3 -397 -1190 -397 -1190 -1646 -3 c-1404 -2 -1647 0 -1647 12 0 8 1069
2916 2376 6462 1307 3547 2381 6461 2386 6477 l10 27 1478 0 1478 0 10 -27z"/>
<path d="M9557 10803 c-373 -1242 -677 -2261 -677 -2265 0 -10 2720 -10 2720
0 0 17 -1355 4522 -1360 4522 -3 0 -311 -1016 -683 -2257z"/>
</g>
</svg>
